<?xml version="1.0" standalone="no"?>
<!DOCTYPE svg PUBLIC "-//W3C//DTD SVG 20010904//EN"
 "http://www.w3.org/TR/2001/REC-SVG-20010904/DTD/svg10.dtd">
<svg version="1.0" xmlns="http://www.w3.org/2000/svg"
 width="260.000000pt" height="260.000000pt" viewBox="0 0 260.000000 260.000000"
 preserveAspectRatio="xMidYMid meet">
<metadata>
Created by potrace 1.11, written by Peter Selinger 2001-2013
</metadata>
<g transform="translate(0.000000,260.000000) scale(0.100000,-0.100000)"
fill="#000000" stroke="none">
<path d="M1825 2228 c-66 -21 -135 -62 -160 -93 -29 -39 -33 -55 -7 -33 9 9
31 19 47 22 17 4 41 9 55 12 14 3 76 7 138 9 l112 3 0 -33 c0 -28 -15 -115
-35 -210 -3 -11 -7 -29 -9 -40 -16 -71 -62 -236 -92 -325 -31 -93 -121 -291
-156 -344 -7 -11 -36 -56 -65 -100 -67 -105 -144 -216 -202 -290 -91 -115 -91
-122 1 -38 123 114 408 539 490 732 52 122 135 405 154 526 3 22 10 47 15 57
5 9 7 17 4 17 -3 0 -1 9 5 19 9 18 23 19 179 21 121 0 172 -3 177 -11 8 -14 7
-72 -1 -100 -5 -14 -1 -19 14 -19 15 0 23 10 31 43 6 23 13 49 15 57 3 8 4 17
4 20 0 3 4 16 9 30 5 14 12 37 16 53 l6 27 -357 -1 c-200 -1 -371 -5 -388 -11z"/>
<path d="M1709 2069 c-70 -18 -152 -53 -144 -61 3 -3 33 0 68 7 50 9 159 12
224 6 12 -1 11 -52 -3 -126 -3 -16 -7 -39 -9 -50 -2 -18 -6 -36 -19 -100 -2
-11 -9 -40 -16 -65 -7 -25 -14 -54 -16 -65 -6 -33 -64 -205 -96 -285 -41 -103
-46 -114 -46 -120 0 -3 -26 -54 -56 -114 -31 -60 -55 -110 -53 -112 11 -11
148 232 210 374 67 152 146 415 163 542 3 25 8 48 10 52 2 3 7 31 10 61 l6 55
-32 7 c-60 13 -136 11 -201 -6z"/>
<path d="M2104 1734 c19 -13 43 -35 54 -51 19 -25 24 -27 106 -28 53 -1 90 3
94 9 12 20 31 80 27 86 -3 4 -74 7 -160 7 l-155 0 34 -23z"/>
<path d="M584 1519 c-126 -31 -202 -73 -298 -163 -27 -25 -46 -46 -44 -46 15
0 76 31 86 43 16 19 135 77 170 83 15 3 41 8 57 13 34 8 172 7 225 -3 190 -36
415 -131 651 -276 l46 -28 48 34 c26 18 50 36 52 38 7 7 -211 133 -311 181
-87 41 -221 93 -259 100 -10 2 -26 6 -35 9 -17 5 -44 10 -112 22 -75 13 -208
10 -276 -7z"/>
<path d="M517 1363 c-1 0 -18 -4 -37 -7 -72 -12 -95 -17 -145 -35 -29 -10 -61
-24 -71 -31 -18 -11 -18 -11 1 -4 253 89 562 18 973 -223 l73 -43 35 23 34 24
-28 14 c-15 8 -45 26 -68 41 -106 70 -367 189 -449 203 -22 4 -47 11 -56 16
-22 11 -253 31 -262 22z"/>
<path d="M2289 1341 c-16 -46 -33 -74 -60 -94 -24 -17 -45 -19 -205 -21 l-179
-1 -21 -30 c-44 -64 -56 -61 206 -63 l239 -1 15 47 c17 54 46 165 46 179 0 21
-32 8 -41 -16z"/>
<path d="M198 1223 c-49 -55 -61 -228 -23 -334 21 -61 43 -107 55 -119 3 -3
16 -20 29 -38 58 -83 220 -188 351 -226 174 -52 358 -37 516 41 64 32 201 139
191 149 -2 3 -31 -12 -63 -31 -60 -37 -164 -74 -220 -79 -17 -2 -36 -6 -42
-10 -23 -14 -267 2 -344 22 -185 50 -329 155 -395 290 -34 69 -38 84 -40 164
-1 51 4 107 11 132 17 57 5 74 -26 39z"/>
<path d="M21 919 c-5 -178 68 -334 207 -439 61 -45 173 -98 248 -116 47 -11
273 -13 311 -2 20 5 43 11 52 13 70 14 185 66 284 128 61 39 61 46 0 12 -238
-133 -519 -156 -740 -59 -106 46 -197 123 -258 218 -42 65 -84 188 -87 257 -4
69 -15 61 -17 -12z"/>
</g>
</svg>
